<svg id="Слой_131" data-name="Слой 131" xmlns="http://www.w3.org/2000/svg" viewBox="0 0 300 300"><defs><style>.cls-1,.cls-2{fill:#fff;}.cls-1,.cls-3,.cls-6{stroke:#4b4847;stroke-width:2px;}.cls-1,.cls-3{stroke-linecap:round;stroke-linejoin:round;}.cls-3,.cls-6{fill:none;}.cls-4,.cls-5{fill:#4b4847;}.cls-4{fill-rule:evenodd;}.cls-6{stroke-miterlimit:22.93;}</style></defs><title>Монтажная область 1</title><rect class="cls-1" x="61" y="228" width="168" height="6"/><rect class="cls-2" x="62" y="33" width="170" height="196"/><rect class="cls-3" x="63" y="32" width="170" height="196"/><rect class="cls-2" x="62" y="39" width="170" height="186"/><rect class="cls-3" x="63" y="40" width="170" height="188"/><rect class="cls-2" x="62" y="111" width="66" height="4"/><rect class="cls-3" x="61" y="110" width="66" height="4"/><rect class="cls-2" x="62" y="149" width="66" height="4"/><rect class="cls-3" x="61" y="150" width="66" height="4"/><rect class="cls-2" x="62" y="73" width="170" height="4"/><rect class="cls-3" x="63" y="72" width="170" height="4"/><rect class="cls-2" x="62" y="191" width="170" height="4"/><rect class="cls-3" x="63" y="192" width="170" height="4"/><polygon class="cls-1" points="91 21 61 32.54 61 230.53 91 240.91 91 21"/><rect class="cls-2" x="92" y="25" width="4" height="214"/><rect class="cls-1" x="91" y="21" width="4" height="220"/><path class="cls-4" d="M196,113H162.62l-.09-3.62,16.68-13.67v-.09l0,0,0,0v.09L196,109.38Zm-30-2h25.15l-12.57-10.33Z"/><rect class="cls-5" x="178" y="93" width="4" height="4"/><path class="cls-5" d="M177,83.82c1-2,2-2.27,2.78-1.73a3.44,3.44,0,0,1,1.11,1.85,7.58,7.58,0,0,1,.25,2.8A7.2,7.2,0,0,1,180,90.05v3.41h0V89l-1-.14a2.85,2.85,0,0,0,1.4-2.36,4.9,4.9,0,0,0-.16-1.81,2.26,2.26,0,0,0-.73-1.22c-.53-.38-1.26-.1-2,1.41Z"/><path class="cls-4" d="M208,113H174.62l-.09-3.62,16.68-13.67v-.09l0,0,0,0v.09L208,109.38Zm-30.77-2h25.15l-12.57-10.33Z"/><rect class="cls-5" x="190" y="93" width="4" height="4"/><path class="cls-5" d="M188.9,83.82c1-2,2-2.27,2.78-1.73a3.43,3.43,0,0,1,1.11,1.85,7.59,7.59,0,0,1,.25,2.8,9,9,0,0,1-1,3.31v3.41h0V89l-1.08-.14a2.85,2.85,0,0,0,1.4-2.36,4.91,4.91,0,0,0-.16-1.81,2.27,2.27,0,0,0-.73-1.22c-.54-.38-1.26-.1-2,1.41Z"/><path class="cls-4" d="M218,113H184.62l-.09-3.62,16.68-13.67v-.09l0,0,0,0v.09L218,109.38Zm-29.52-2h25.15l-12.57-10.33Z"/><rect class="cls-5" x="200" y="93" width="4" height="4"/><path class="cls-5" d="M198.78,83.82c1-2,2-2.27,2.78-1.73a3.44,3.44,0,0,1,1.11,1.85,7.59,7.59,0,0,1,.25,2.8,12.21,12.21,0,0,1-.92,3.31v3.41h0V89l-1.19-.14a2.85,2.85,0,0,0,1.4-2.36,4.92,4.92,0,0,0-.16-1.81,2.27,2.27,0,0,0-.73-1.22c-.54-.38-1.26-.1-2,1.41Z"/><line class="cls-6" x1="224" y1="86" x2="158" y2="86"/><rect class="cls-1" x="223" y="21" width="4" height="220"/><polygon class="cls-1" points="153 21 123 32.54 123 230.53 153 240.91 153 21"/><rect class="cls-1" x="153" y="21" width="4" height="220"/><polygon class="cls-1" points="227 21 233 32.54 233 230.53 227 240.91 227 21"/></svg>