<svg id="Слой_172" data-name="Слой 172" xmlns="http://www.w3.org/2000/svg" viewBox="0 0 300 300"><defs><style>.cls-1,.cls-4,.cls-5{fill:#fff;}.cls-1,.cls-3{stroke:#4b4847;stroke-linecap:round;stroke-linejoin:round;stroke-width:2px;}.cls-2{fill:#4b4847;}.cls-2,.cls-4{fill-rule:evenodd;}.cls-3{fill:none;}</style></defs><title>Монтажная область 1</title><path class="cls-1" d="M266.64,186.52l.52,13c3.59,3.65,1.33,6.85-1.71,7.16L77,226l-38,.07-.16-36.21,7.69-12.13A8,8,0,0,1,53.31,174H262C267.66,174,271.82,180.75,266.64,186.52Z"/><polygon class="cls-1" points="255 201.47 269 180.64 269 215.25 255 240.03 255 201.47"/><path class="cls-2" d="M84.46,186.38c2.1,0,3.81.84,3.81,1.88s-1.7,1.88-3.81,1.88-3.81-.84-3.81-1.88,1.7-1.88,3.81-1.88"/><path class="cls-2" d="M103.06,186.38c-2.1,0-3.81.84-3.81,1.88s1.7,1.88,3.81,1.88,3.81-.84,3.81-1.88-1.7-1.88-3.81-1.88"/><path class="cls-2" d="M146.26,186.38c-2.1,0-3.81.84-3.81,1.88s1.7,1.88,3.81,1.88,3.81-.84,3.81-1.88-1.7-1.88-3.81-1.88"/><path class="cls-2" d="M127.66,186.38c2.1,0,3.81.84,3.81,1.88s-1.7,1.88-3.81,1.88-3.81-.84-3.81-1.88,1.71-1.88,3.81-1.88"/><path class="cls-2" d="M220.66,186.38c-2.1,0-3.81.84-3.81,1.88s1.7,1.88,3.81,1.88,3.81-.84,3.81-1.88-1.7-1.88-3.81-1.88"/><path class="cls-2" d="M211.36,181c2.1,0,3.81.84,3.81,1.88s-1.71,1.88-3.81,1.88-3.81-.84-3.81-1.88,1.7-1.88,3.81-1.88"/><path class="cls-2" d="M202.06,186.38c2.1,0,3.81.84,3.81,1.88s-1.7,1.88-3.81,1.88-3.81-.84-3.81-1.88,1.7-1.88,3.81-1.88"/><path class="cls-2" d="M155.56,181c2.1,0,3.81.84,3.81,1.88s-1.71,1.88-3.81,1.88-3.81-.84-3.81-1.88,1.71-1.88,3.81-1.88"/><path class="cls-2" d="M164.86,186.38c2.1,0,3.81.84,3.81,1.88s-1.7,1.88-3.81,1.88-3.81-.84-3.81-1.88,1.71-1.88,3.81-1.88"/><path class="cls-2" d="M174.16,181c-2.1,0-3.81.84-3.81,1.88s1.71,1.88,3.81,1.88,3.81-.84,3.81-1.88-1.71-1.88-3.81-1.88"/><path class="cls-2" d="M192.76,181c-2.1,0-3.81.84-3.81,1.88s1.7,1.88,3.81,1.88,3.81-.84,3.81-1.88-1.71-1.88-3.81-1.88"/><path class="cls-2" d="M183.46,186.38c-2.1,0-3.81.84-3.81,1.88s1.7,1.88,3.81,1.88,3.81-.84,3.81-1.88-1.71-1.88-3.81-1.88"/><path class="cls-2" d="M230,181c2.1,0,3.81.84,3.81,1.88s-1.7,1.88-3.81,1.88-3.81-.84-3.81-1.88S227.86,181,230,181"/><path class="cls-2" d="M239.26,186.38c2.1,0,3.81.84,3.81,1.88s-1.7,1.88-3.81,1.88-3.81-.84-3.81-1.88,1.71-1.88,3.81-1.88"/><path class="cls-2" d="M248.56,181c-2.1,0-3.81.84-3.81,1.88s1.71,1.88,3.81,1.88,3.81-.84,3.81-1.88-1.7-1.88-3.81-1.88"/><path class="cls-1" d="M127,236l-93.89,0L39,228.26V191.09A7.11,7.11,0,0,1,46.09,184h89.44L127,196.34Z"/><path class="cls-1" d="M255,238.62a3.48,3.48,0,0,1-3.53,3.38H127V198H248a6.89,6.89,0,0,1,7,6.76Q255,221.69,255,238.62Z"/><polyline class="cls-3" points="133 222 253.48 222.02 268.14 200.39"/><path class="cls-4" d="M35,243h91v-8H34.87C30.72,236.46,30.36,243.27,35,243Z"/><path class="cls-3" d="M34.71,244H127v-8H34.62C30.47,236.12,30.11,242.94,34.71,244Z"/><rect class="cls-5" x="40" y="213" width="88" height="14"/><rect class="cls-1" x="39" y="214" width="88" height="14"/><line class="cls-3" x1="47" y1="228" x2="47.02" y2="222"/><line class="cls-3" x1="55" y1="228" x2="55.02" y2="222"/><line class="cls-3" x1="63" y1="228" x2="63.02" y2="222"/><line class="cls-3" x1="71" y1="228" x2="71.02" y2="222"/><line class="cls-3" x1="79" y1="228" x2="79.02" y2="222"/><line class="cls-3" x1="87" y1="228" x2="87.02" y2="222"/><line class="cls-3" x1="95" y1="228" x2="95.02" y2="222"/><line class="cls-3" x1="103" y1="228" x2="103.02" y2="222"/><line class="cls-3" x1="111" y1="228" x2="111.02" y2="222"/><line class="cls-3" x1="119" y1="228" x2="119.02" y2="222"/></svg>