<svg id="Слой_27" data-name="Слой 27" xmlns="http://www.w3.org/2000/svg" viewBox="0 0 300 300"><defs><style>.cls-1{fill:#fff;}.cls-1,.cls-2,.cls-3{stroke:#4b4847;stroke-linecap:round;stroke-linejoin:round;stroke-width:2px;}.cls-2{fill:#fdfdfc;}.cls-3{fill:none;}</style></defs><title>Монтажная область 1</title><rect class="cls-1" x="55" y="128" width="190" height="76"/><rect class="cls-2" x="31" y="200" width="238" height="32"/><path class="cls-3" d="M135.12,184.52c-18.68,1.18-36.09,3.77-56-.52,0,0,3-23.23,0-34.29a147.85,147.85,0,0,0,56,0A67.75,67.75,0,0,0,135.12,184.52Z"/><path class="cls-3" d="M216.09,184.52c-18.68,1.18-36.09,3.77-56-.52,0,0,3-23.23,0-34.29a147.85,147.85,0,0,0,56,0A67.75,67.75,0,0,0,216.09,184.52Z"/><path class="cls-1" d="M269,190.15c0-4.61-2.42-6.15-8-6.15H36.82c-3.45,0-5.87,1-5.82,4.71V200H269Z"/><rect class="cls-1" x="251" y="232" width="12" height="12"/><rect class="cls-1" x="37" y="232" width="12" height="12"/></svg>