<svg id="Слой_6" data-name="Слой 6" xmlns="http://www.w3.org/2000/svg" viewBox="0 0 300 300"><defs><style>.cls-1{fill:#fff;}.cls-1,.cls-2{stroke:#4b4847;stroke-miterlimit:22.93;stroke-width:2px;}.cls-2{fill:none;}</style></defs><title>Монтажная область 1</title><rect class="cls-1" x="229" y="238" width="4" height="6"/><rect class="cls-1" x="65" y="238" width="4" height="6"/><polygon class="cls-1" points="258 234 244 234.05 244 244 258 244 258 234"/><path class="cls-1" d="M60.23,142H116v51H53V149.61A7.45,7.45,0,0,1,60.23,142Z"/><polygon class="cls-1" points="55 234 41 234.05 41 244 55 244 55 234"/><rect class="cls-1" x="116" y="142" width="66" height="51"/><path class="cls-1" d="M53,195.55V239h96V195.55a7.57,7.57,0,0,0-7.55-7.55H60.55A7.57,7.57,0,0,0,53,195.55Z"/><rect class="cls-1" x="31" y="169" width="22" height="66"/><polygon class="cls-1" points="247 235 246.77 169 269 169 269 235 247 235"/><path class="cls-1" d="M239.57,142H182v51h65V149.55A7.51,7.51,0,0,0,239.57,142Z"/><path class="cls-1" d="M247,195.56V239H149V195.56a7.66,7.66,0,0,1,7.72-7.56h82.55A7.66,7.66,0,0,1,247,195.56Z"/><rect class="cls-2" x="53" y="208" width="194" height="8"/></svg>