<svg width="228" height="64" viewBox="0 0 228 64" fill="none" xmlns="http://www.w3.org/2000/svg">
<path d="M96.1736 26V5.7132H115.214V26H109.534V8.98807L110.809 10.2632H100.579L101.825 8.98807V26H96.1736ZM117.638 26L117.87 21.5079C118.005 21.5272 118.131 21.5466 118.247 21.5659C118.363 21.5659 118.469 21.5659 118.566 21.5659C119.049 21.5659 119.425 21.45 119.696 21.2181C119.986 20.9669 120.198 20.6288 120.333 20.2038C120.488 19.7787 120.594 19.286 120.652 18.7257C120.73 18.1461 120.778 17.5182 120.797 16.842L121.029 10.2922H135.23V26H129.723V13.4222L130.941 14.6684H124.652L125.811 13.3642L125.637 17.0738C125.579 18.4842 125.453 19.7691 125.26 20.9283C125.086 22.0682 124.806 23.0439 124.42 23.8554C124.033 24.6669 123.502 25.2948 122.826 25.7392C122.169 26.1642 121.328 26.3768 120.304 26.3768C119.937 26.3768 119.522 26.3381 119.058 26.2608C118.614 26.2029 118.141 26.1159 117.638 26ZM148.233 26V23.0729L147.856 22.3484V16.9579C147.856 16.0885 147.586 15.4219 147.045 14.9582C146.523 14.4752 145.683 14.2337 144.524 14.2337C143.77 14.2337 143.007 14.3592 142.234 14.6104C141.461 14.8423 140.804 15.1707 140.263 15.5958L138.409 11.8572C139.297 11.2776 140.36 10.8332 141.597 10.5241C142.852 10.1956 144.099 10.0314 145.335 10.0314C147.885 10.0314 149.856 10.6207 151.247 11.7992C152.658 12.9585 153.363 14.7843 153.363 17.2767V26H148.233ZM143.596 26.2608C142.34 26.2608 141.278 26.0483 140.408 25.6232C139.539 25.1982 138.872 24.6186 138.409 23.8844C137.964 23.1502 137.742 22.3291 137.742 21.421C137.742 20.4549 137.984 19.6242 138.467 18.9286C138.969 18.2137 139.732 17.6728 140.756 17.3057C141.78 16.9192 143.104 16.726 144.726 16.726H148.436V19.5952H145.48C144.591 19.5952 143.963 19.7401 143.596 20.0299C143.248 20.3197 143.075 20.7061 143.075 21.1891C143.075 21.6722 143.258 22.0586 143.625 22.3484C143.992 22.6382 144.495 22.7831 145.132 22.7831C145.731 22.7831 146.272 22.6382 146.755 22.3484C147.258 22.0392 147.625 21.5755 147.856 20.9573L148.61 22.986C148.32 24.0679 147.75 24.8891 146.9 25.4494C146.069 25.9903 144.968 26.2608 143.596 26.2608ZM156.676 26V10.2922H162.153V16.1174H167.804V10.2922H173.311V26H167.804V20.4936H162.153V26H156.676ZM185.11 26.2608C183.256 26.2608 181.633 25.9131 180.242 25.2175C178.87 24.5026 177.797 23.5366 177.025 22.3194C176.271 21.0829 175.894 19.6821 175.894 18.1171C175.894 16.5521 176.261 15.1611 176.996 13.9438C177.749 12.7073 178.783 11.7509 180.097 11.0747C181.41 10.3792 182.888 10.0314 184.531 10.0314C186.076 10.0314 187.487 10.3502 188.762 10.9878C190.037 11.606 191.051 12.5238 191.805 13.741C192.558 14.9582 192.935 16.4362 192.935 18.1751C192.935 18.3683 192.926 18.5905 192.906 18.8417C192.887 19.0928 192.868 19.3247 192.848 19.5372H180.415V16.6391H189.921L187.835 17.4506C187.854 16.7357 187.719 16.1174 187.429 15.5958C187.158 15.0741 186.772 14.6684 186.27 14.3786C185.787 14.0888 185.217 13.9438 184.56 13.9438C183.903 13.9438 183.323 14.0888 182.821 14.3786C182.338 14.6684 181.961 15.0838 181.691 15.6248C181.42 16.1464 181.285 16.7647 181.285 17.4795V18.32C181.285 19.0928 181.439 19.7594 181.749 20.3197C182.077 20.88 182.541 21.3147 183.14 21.6238C183.739 21.9137 184.453 22.0586 185.284 22.0586C186.057 22.0586 186.714 21.9523 187.255 21.7398C187.815 21.5079 188.366 21.1602 188.907 20.6965L191.805 23.7105C191.051 24.5413 190.124 25.1789 189.023 25.6232C187.922 26.0483 186.617 26.2608 185.11 26.2608ZM198.843 26V13.4512L200.031 14.6684H193.771V10.2922H209.363V14.6684H203.103L204.32 13.4512V26H198.843ZM220.799 26V23.0729L220.423 22.3484V16.9579C220.423 16.0885 220.152 15.4219 219.611 14.9582C219.089 14.4752 218.249 14.2337 217.09 14.2337C216.336 14.2337 215.573 14.3592 214.8 14.6104C214.027 14.8423 213.37 15.1707 212.829 15.5958L210.975 11.8572C211.863 11.2776 212.926 10.8332 214.163 10.5241C215.418 10.1956 216.665 10.0314 217.901 10.0314C220.451 10.0314 222.422 10.6207 223.813 11.7992C225.224 12.9585 225.929 14.7843 225.929 17.2767V26H220.799ZM216.162 26.2608C214.906 26.2608 213.844 26.0483 212.974 25.6232C212.105 25.1982 211.438 24.6186 210.975 23.8844C210.53 23.1502 210.308 22.3291 210.308 21.421C210.308 20.4549 210.55 19.6242 211.033 18.9286C211.535 18.2137 212.298 17.6728 213.322 17.3057C214.346 16.9192 215.67 16.726 217.293 16.726H221.002V19.5952H218.046C217.157 19.5952 216.529 19.7401 216.162 20.0299C215.815 20.3197 215.641 20.7061 215.641 21.1891C215.641 21.6722 215.824 22.0586 216.191 22.3484C216.558 22.6382 217.061 22.7831 217.698 22.7831C218.297 22.7831 218.838 22.6382 219.321 22.3484C219.824 22.0392 220.191 21.5755 220.423 20.9573L221.176 22.986C220.886 24.0679 220.316 24.8891 219.466 25.4494C218.635 25.9903 217.534 26.2608 216.162 26.2608ZM95.8548 58V42.2922H101.651L107.128 52.5515H104.839L110.838 42.2922H116.026L116.055 58H111.099V47.7407L111.939 48.3203L107.07 56.6089H104.723L99.8542 47.9146L100.811 47.6537V58H95.8548ZM127.856 58.2608C126.001 58.2608 124.378 57.9131 122.987 57.2175C121.615 56.5026 120.543 55.5366 119.77 54.3194C119.016 53.0829 118.64 51.6821 118.64 50.1171C118.64 48.5521 119.007 47.1611 119.741 45.9438C120.494 44.7073 121.528 43.7509 122.842 43.0747C124.156 42.3792 125.634 42.0314 127.276 42.0314C128.822 42.0314 130.232 42.3502 131.507 42.9878C132.782 43.606 133.797 44.5238 134.55 45.741C135.304 46.9582 135.681 48.4362 135.681 50.1751C135.681 50.3683 135.671 50.5905 135.652 50.8417C135.632 51.0928 135.613 51.3247 135.594 51.5372H123.161V48.6391H132.666L130.58 49.4506C130.599 48.7357 130.464 48.1174 130.174 47.5958C129.904 47.0741 129.517 46.6684 129.015 46.3786C128.532 46.0888 127.962 45.9438 127.305 45.9438C126.648 45.9438 126.068 46.0888 125.566 46.3786C125.083 46.6684 124.706 47.0838 124.436 47.6248C124.165 48.1464 124.03 48.7647 124.03 49.4795V50.32C124.03 51.0928 124.185 51.7594 124.494 52.3197C124.822 52.88 125.286 53.3147 125.885 53.6238C126.484 53.9137 127.199 54.0586 128.03 54.0586C128.802 54.0586 129.459 53.9523 130 53.7398C130.561 53.5079 131.111 53.1602 131.652 52.6965L134.55 55.7105C133.797 56.5413 132.869 57.1789 131.768 57.6232C130.667 58.0483 129.363 58.2608 127.856 58.2608ZM146.763 58.4057C145.488 58.4057 144.3 58.2222 143.199 57.8551C142.117 57.488 141.17 56.9084 140.358 56.1162C139.566 55.3241 138.938 54.2904 138.475 53.0152C138.03 51.7401 137.808 50.1944 137.808 48.3783C137.808 47.1611 137.914 46.0405 138.127 45.0165C138.339 43.9925 138.658 43.0554 139.083 42.2053C139.528 41.3358 140.088 40.5727 140.764 39.9158C141.46 39.2589 142.271 38.7082 143.199 38.2638C144.126 37.8195 145.189 37.4814 146.387 37.2495L154.009 35.8005L154.762 40.4084L148.154 41.6546C147.749 41.7319 147.304 41.8285 146.821 41.9445C146.358 42.0604 145.904 42.2343 145.459 42.4661C145.015 42.6786 144.599 42.9781 144.213 43.3645C143.846 43.7509 143.546 44.2629 143.315 44.9005C143.102 45.5188 142.996 46.2916 142.996 47.219C142.996 47.4895 143.005 47.7117 143.025 47.8856C143.063 48.0401 143.092 48.2237 143.112 48.4362C143.131 48.6294 143.141 48.9289 143.141 49.3346L141.605 47.9146C142.068 47.1031 142.619 46.4172 143.257 45.8569C143.914 45.2966 144.667 44.8619 145.517 44.5528C146.367 44.2436 147.314 44.0891 148.357 44.0891C149.884 44.0891 151.197 44.3885 152.299 44.9875C153.4 45.5671 154.24 46.3786 154.82 47.4219C155.419 48.4459 155.718 49.6148 155.718 50.9286C155.718 52.4743 155.332 53.8074 154.559 54.928C153.786 56.0293 152.724 56.8891 151.371 57.5073C150.038 58.1063 148.502 58.4057 146.763 58.4057ZM146.908 54.2325C147.546 54.2325 148.096 54.0972 148.56 53.8267C149.043 53.5562 149.42 53.1795 149.69 52.6965C149.961 52.2134 150.096 51.6725 150.096 51.0735C150.096 50.4552 149.961 49.9239 149.69 49.4795C149.42 49.0352 149.043 48.6874 148.56 48.4362C148.096 48.1851 147.546 48.0595 146.908 48.0595C146.271 48.0595 145.701 48.1851 145.198 48.4362C144.715 48.6874 144.339 49.0255 144.068 49.4506C143.798 49.8756 143.662 50.3876 143.662 50.9866C143.662 51.5855 143.798 52.1362 144.068 52.6385C144.339 53.1408 144.715 53.5369 145.198 53.8267C145.701 54.0972 146.271 54.2325 146.908 54.2325ZM166.346 58.2608C164.491 58.2608 162.868 57.9131 161.477 57.2175C160.106 56.5026 159.033 55.5366 158.26 54.3194C157.507 53.0829 157.13 51.6821 157.13 50.1171C157.13 48.5521 157.497 47.1611 158.231 45.9438C158.985 44.7073 160.019 43.7509 161.332 43.0747C162.646 42.3792 164.124 42.0314 165.767 42.0314C167.312 42.0314 168.723 42.3502 169.998 42.9878C171.273 43.606 172.287 44.5238 173.041 45.741C173.794 46.9582 174.171 48.4362 174.171 50.1751C174.171 50.3683 174.161 50.5905 174.142 50.8417C174.123 51.0928 174.103 51.3247 174.084 51.5372H161.651V48.6391H171.157L169.07 49.4506C169.09 48.7357 168.954 48.1174 168.665 47.5958C168.394 47.0741 168.008 46.6684 167.505 46.3786C167.022 46.0888 166.452 45.9438 165.796 45.9438C165.139 45.9438 164.559 46.0888 164.057 46.3786C163.574 46.6684 163.197 47.0838 162.926 47.6248C162.656 48.1464 162.521 48.7647 162.521 49.4795V50.32C162.521 51.0928 162.675 51.7594 162.984 52.3197C163.313 52.88 163.777 53.3147 164.375 53.6238C164.974 53.9137 165.689 54.0586 166.52 54.0586C167.293 54.0586 167.95 53.9523 168.491 53.7398C169.051 53.5079 169.602 53.1602 170.143 52.6965L173.041 55.7105C172.287 56.5413 171.36 57.1789 170.259 57.6232C169.157 58.0483 167.853 58.2608 166.346 58.2608ZM175.431 58L175.662 53.5079C175.798 53.5272 175.923 53.5466 176.039 53.5659C176.155 53.5659 176.261 53.5659 176.358 53.5659C176.841 53.5659 177.218 53.45 177.488 53.2181C177.778 52.9669 177.991 52.6288 178.126 52.2038C178.28 51.7787 178.387 51.286 178.445 50.7257C178.522 50.1461 178.57 49.5182 178.59 48.842L178.821 42.2922H193.022V58H187.516V45.4222L188.733 46.6684H182.444L183.603 45.3642L183.429 49.0738C183.371 50.4842 183.246 51.7691 183.053 52.9283C182.879 54.0682 182.599 55.0439 182.212 55.8554C181.826 56.6669 181.294 57.2948 180.618 57.7392C179.961 58.1642 179.121 58.3768 178.097 58.3768C177.73 58.3768 177.314 58.3381 176.851 58.2608C176.406 58.2029 175.933 58.1159 175.431 58ZM196.723 58V42.2922H202.2V50.5229L208.779 42.2922H213.851V58H208.344V49.7404L201.823 58H196.723ZM217.872 50.6098L216.799 37.7132H223.349L222.248 50.6098H217.872ZM220.074 58.2608C219.108 58.2608 218.316 57.9614 217.698 57.3624C217.08 56.7635 216.77 56.0486 216.77 55.2178C216.77 54.3677 217.08 53.6625 217.698 53.1022C218.316 52.5226 219.108 52.2328 220.074 52.2328C221.04 52.2328 221.823 52.5226 222.422 53.1022C223.04 53.6625 223.349 54.3677 223.349 55.2178C223.349 56.0486 223.04 56.7635 222.422 57.3624C221.823 57.9614 221.04 58.2608 220.074 58.2608Z" fill="#5BBA3C"/>
<path fill-rule="evenodd" clip-rule="evenodd" d="M36.0396 4.00005H38.0929C42.6908 4.17053 47.3067 5.47531 51.2012 7.76463C54.0624 9.44656 56.1461 11.2595 58.327 13.7C59.8977 15.4576 61.2402 17.8082 62.3003 19.9113L63.1591 21.9291C63.3938 22.6025 63.6733 23.4357 63.6733 24.2916C63.6733 24.7143 62.133 26.3143 61.7745 26.5911C61.5018 26.8017 61.441 26.8848 61.2064 27.1113C60.4067 27.8836 58.0335 29.6326 57.0649 30.2779C56.23 30.8342 55.3795 31.3942 54.5038 31.915C54.0753 32.1699 53.6253 32.4455 53.1777 32.688L44.779 36.8841C40.2039 38.8902 35.6228 40.4867 30.8031 41.8002C26.2163 43.0503 21.3174 44.0388 16.3264 44.0388C13.534 44.0388 12.8135 44.3638 11.772 42.6069C11.3666 41.9231 10.8331 40.6028 10.6061 39.8078C9.5148 35.9858 9.56263 34.0267 9.56263 30.1224C9.56263 26.2204 10.9901 22.1361 12.3097 19.4973C13.2619 17.5929 13.69 17.0239 14.8336 15.3352C15.3656 14.5497 17.2323 12.3791 17.9403 11.7557C22.0411 8.14448 25.425 6.04594 30.9416 4.69885C32.5959 4.29488 34.3086 4.0648 36.0396 4.00005V4.00005Z" fill="#5BBA3C"/>
<path fill-rule="evenodd" clip-rule="evenodd" d="M61.0584 14.3216L61.1108 14.4305L61.3041 14.6166L61.3604 14.723L61.414 14.829L61.6039 15.0185L61.6593 15.1272L61.7167 15.2271L61.8989 15.4319L61.9532 15.5063L64.3016 18.843C64.4957 19.0776 64.2452 18.9269 64.5443 19.0668C64.9 19.2331 65.8692 19.0413 67.6154 20.5049C68.4243 21.1828 68.5818 21.8012 68.2928 23.158C67.9534 24.7509 66.325 26.3434 65.3253 27.343C64.0455 28.6229 62.8851 29.5327 61.4307 30.601C51.3996 37.969 32.4842 44.9588 20.3564 46.6693C16.4753 47.2166 10.5864 47.6429 8.00585 45.6733C6.23354 44.3206 6.95859 42.256 8.02365 40.7117C8.35758 40.2275 8.38212 40.0572 8.31474 39.2226C8.23389 38.221 7.98218 37.0617 7.93144 36.0296C7.91252 35.6445 7.86852 34.6119 7.77452 34.3593C7.58503 33.9878 7.78567 34.3146 7.5716 34.1178L5.57973 36.1676C5.23927 36.5272 4.92393 36.8345 4.62718 37.2371C4.1837 37.8387 4.37265 37.4634 4.13387 37.748C4.04637 37.8524 4.0338 37.9288 3.95861 38.0432C3.77665 38.32 3.94056 38.1653 3.65404 38.2853C3.06553 38.5974 1.37403 41.4072 0.905971 42.3792C0.422146 43.384 0.112711 44.3716 0 45.3297V46.9095C0.181419 48.3594 0.883139 49.719 2.19524 50.9397C3.74521 52.3818 6.63339 53.3044 8.68661 53.7C11.1235 54.1696 14.5199 54.3888 17.419 54.1497C18.1599 54.0886 18.8374 54.141 19.559 54.0352C20.2788 53.9296 20.9612 53.8992 21.6771 53.8209C23.0343 53.6725 24.4484 53.437 25.7449 53.224C28.4266 52.7833 30.8745 52.1569 33.3838 51.5335C35.7646 50.9421 38.1623 50.1447 40.4759 49.3739C47.8908 46.9035 56.032 43.0429 62.3982 38.7987C65.961 36.4235 68.2962 34.4781 71.3117 31.4635C72.3744 30.4011 73.0602 29.4566 73.9477 28.2687C74.6865 27.2798 75.4887 25.6573 75.91 24.4C76.0472 23.9906 76.1425 23.4545 76.1902 22.882V21.2014C76.1575 20.8319 76.1015 20.4845 76.0207 20.1851C75.4965 18.2427 73.1613 16.3768 71.2599 15.6164C70.1216 15.1613 68.9141 14.8452 67.6332 14.5785C66.6616 14.3762 64.4218 14.0359 63.44 14.1252L60.9284 14.1029C61.034 14.33 60.8311 14.1099 61.0584 14.3216Z" fill="#5BBA3C"/>
<path fill-rule="evenodd" clip-rule="evenodd" d="M22.7567 56.1039L22 56.2618C22.1374 56.4729 22.0998 56.4351 22.306 56.5642C22.3807 56.6109 22.4488 56.6363 22.5071 56.6812C22.7035 56.8322 22.5767 56.7217 22.6808 56.8814C22.9685 57.2856 24.8345 58.4738 25.3543 58.8098C28.3224 60.7286 32.0953 62.0303 35.6356 62.6004C36.7809 62.7849 37.9066 62.899 39.0164 62.9455H41.2979C44.5174 62.8093 47.621 62.0964 50.7064 60.8688C52.2563 60.2521 53.9761 59.3308 55.333 58.4205C56.0839 57.9167 56.6339 57.5777 57.3501 56.9391C60.1994 54.3985 61.8452 52.8616 63.9163 49.4335C64.0767 49.168 64.1584 48.9468 64.3222 48.6732C64.4916 48.3903 64.5792 48.2168 64.73 47.9148C65.6504 46.0713 66.0845 44.8512 66.7297 42.9174C66.9525 42.25 67.5547 39.7327 67.5547 39L61.6133 42.699C60.5703 43.312 56.1854 45.6832 55.3159 46.042C54.4078 46.4168 53.5784 46.8765 52.6798 47.2932C51.7632 47.7183 50.8877 48.0857 49.9822 48.4827C49.0771 48.8796 48.158 49.211 47.2373 49.6251L43.0552 51.1961C42.5382 51.3667 42.1505 51.5242 41.6172 51.7018C37.524 53.0647 33.6335 54.1041 29.3891 54.945L22.7567 56.1039V56.1039Z" fill="#5BBA3C"/>
<path fill-rule="evenodd" clip-rule="evenodd" d="M3.65404 38.2852C3.94056 38.1653 3.77665 38.3199 3.95861 38.0432C4.0338 37.9288 4.04636 37.8523 4.13387 37.748C4.37264 37.4634 4.1837 37.8387 4.62718 37.237C4.92393 36.8345 5.23927 36.5272 5.57973 36.1675L7.5716 34.1177C7.78567 34.3146 7.58503 33.9878 7.77452 34.3592L7.69674 34.0097C7.19782 34.3438 5.11866 36.5529 4.54333 37.2285C4.53289 37.2408 4.51904 37.2592 4.50864 37.2715C4.49821 37.2838 4.48394 37.3018 4.47346 37.3141L4.40255 37.3992C4.39148 37.4109 4.37655 37.4285 4.36503 37.4398C4.35351 37.4512 4.3355 37.4657 4.32365 37.4767L3.65404 38.2852V38.2852Z" fill="#A8A8A8"/>
<path fill-rule="evenodd" clip-rule="evenodd" d="M61.0584 14.3216C61.0226 14.4427 60.995 14.4125 61.1108 14.4305L61.1517 14.5854C61.1854 14.7412 61.1662 14.5813 61.3041 14.6166C61.2531 14.7563 61.2189 14.7316 61.3603 14.723L61.414 14.829L61.4666 14.9755C61.4964 15.1295 61.4757 14.9665 61.6039 15.0185C61.5663 15.1435 61.5378 15.1136 61.6593 15.1272L61.7166 15.2272C61.7909 15.4118 61.75 15.3357 61.8989 15.4319L61.9532 15.5064L61.8989 15.4319L61.7166 15.2272L61.6593 15.1272L61.6039 15.0185L61.414 14.829L61.3603 14.723L61.3041 14.6166L61.1108 14.4305L61.0584 14.3216C60.8311 14.1099 61.034 14.33 60.9284 14.1029L63.44 14.1252C63.352 13.9952 63.4468 14.021 62.897 14.0277L60.7967 14.0292C60.8347 14.101 60.8232 14.129 60.8717 14.187C61.0256 14.3714 60.9026 14.2501 61.0584 14.3216V14.3216Z" fill="#CDCDCE"/>
<path fill-rule="evenodd" clip-rule="evenodd" d="M20.743 55.7783C20.6388 55.6186 20.7657 55.7291 20.5693 55.5781C20.511 55.5332 20.4429 55.5079 20.3681 55.4611C20.162 55.3321 20.1996 55.3699 20.0621 55.1587L20.8189 55.0008C20.1831 55.0008 20.6608 55.0786 19.9028 55.0786C20.0055 55.2284 20.0745 55.3123 20.2407 55.4381L20.743 55.7783V55.7783Z" fill="#CDCDCE"/>
<path fill-rule="evenodd" clip-rule="evenodd" d="M33.0772 17.6933C32.3274 18.0405 31.4106 18.4189 30.7294 18.8046C29.9886 19.2239 29.3609 19.9824 29.0638 20.667C29.0425 20.7161 29.0335 20.7203 29.0118 20.7694C28.5681 21.7761 28.5486 23.1139 29.0253 24.1435L29.9566 26.1546C30.7368 25.7933 31.5885 25.692 32.4168 25.8192C32.8257 25.882 33.2695 26.0261 33.6379 26.2137C34.3982 26.6009 35.1288 27.255 35.5062 28.0701L36.0227 29.1854L47.5961 23.8264C47.0629 22.6749 46.6335 21.9671 46.7733 20.656L47.0288 19.5661C47.0608 19.4986 47.074 19.4835 47.1 19.4101C47.3215 18.7843 47.8915 18.1485 48.4025 17.7331C48.5983 17.574 48.9444 17.3625 49.2091 17.24L48.2947 15.2653C47.8662 14.3398 47.115 13.6656 46.3095 13.2728C46.2681 13.2526 46.2505 13.2491 46.2053 13.2259C45.6892 12.9612 45.0485 12.8705 44.4759 12.852C43.5166 12.821 42.8176 13.1831 41.9447 13.5874C41.5424 13.7736 41.1402 13.9598 40.738 14.1461C40.6559 14.0476 40.0172 13.8097 39.8775 13.7614L39.4779 13.6509C39.381 13.6283 39.3066 13.6142 39.2106 13.5938C38.3405 13.4097 37.0562 13.5195 36.2106 13.9111L35.8267 14.0889C34.8149 14.5573 33.9769 15.5118 33.5147 16.4122C33.4692 16.5007 33.4413 16.5765 33.4007 16.6587C33.3416 16.778 33.0502 17.5386 33.0772 17.6933V17.6933Z" fill="white"/>
<path fill-rule="evenodd" clip-rule="evenodd" d="M28.8287 31.2952C29.0655 31.8066 29.4133 32.1448 29.8501 32.3578C30.1323 32.4953 30.2942 32.518 30.5935 32.5652C30.9434 33.3209 31.2934 34.0766 31.6433 34.8323C31.8159 35.2051 31.9854 35.6014 32.1679 35.9668C32.5758 36.7835 33.4734 37.5454 34.3268 37.8584C34.4714 37.9115 34.5918 37.9663 34.7445 38.0019C35.0239 38.0672 35.0913 38.098 35.3953 38.131L35.8705 38.1595C35.9507 38.1623 36.0359 38.1536 36.114 38.1577C36.2053 38.5978 35.7504 39.789 36.7993 40.1774C36.929 40.2255 37.0259 40.2468 37.1691 40.2448C37.4483 40.2408 37.7427 40.1295 37.9274 39.916C38.0445 39.7806 38.051 39.7679 38.1256 39.6245C38.2255 39.4322 38.229 39.1717 38.2361 38.9366C38.2436 38.6875 38.2502 38.4651 38.2577 38.216L38.2704 37.4922L52.4767 30.9142C52.5341 30.9878 53.491 31.7351 53.5886 31.813C53.7818 31.9672 53.9549 32.1213 54.181 32.1835C54.5793 32.2931 54.9898 32.1849 55.278 31.8664C55.3734 31.761 55.4264 31.6656 55.4713 31.5428C55.5742 31.2614 55.5873 31.0147 55.4316 30.6783C55.3059 30.4068 54.9064 30.1325 54.6576 29.9339C54.5808 29.8726 54.4331 29.7693 54.3792 29.7002C54.5922 29.4203 54.6997 29.365 54.9352 28.9633C55.5817 27.8608 55.7251 26.5356 55.2673 25.2912C55.1389 24.9421 54.8976 24.4902 54.7354 24.1398C54.3826 23.378 54.0298 22.6162 53.6771 21.8544C53.8522 21.7178 54.0169 21.1568 54.0552 20.9156C54.159 20.2632 53.8737 19.4593 53.3322 19.0312C53.0014 18.7697 52.7663 18.6396 52.3532 18.5561C52.2293 18.531 52.0959 18.5195 51.9726 18.5178C51.7362 18.5145 51.4018 18.556 51.1219 18.6856L50.0432 19.1852C49.761 19.3158 49.5042 19.541 49.3598 19.7235C49.2746 19.8313 49.2057 19.9149 49.1404 20.0376C48.802 20.6728 48.7533 21.3385 49.0743 22.0317L50.3865 24.8657L35.0101 31.9856L33.7148 29.1882C33.3228 28.3417 32.6029 27.9033 31.783 27.877C31.5404 27.8692 31.1872 27.9162 30.9003 28.049L29.8216 28.5485C28.8377 29.0041 28.3668 30.2976 28.8287 31.2952V31.2952Z" fill="white"/>
</svg>
